<?xml version="1.0" encoding="utf-8"?>
<!-- Generator: Adobe Illustrator 12.0.0, SVG Export Plug-In . SVG Version: 6.00 Build 51448)  -->
<!DOCTYPE svg PUBLIC "-//W3C//DTD SVG 1.1//EN" "http://www.w3.org/Graphics/SVG/1.1/DTD/svg11.dtd" [
	<!ENTITY ns_svg "http://www.w3.org/2000/svg">
	<!ENTITY ns_xlink "http://www.w3.org/1999/xlink">
]>
<svg  version="1.1" id="DRV_8825" xmlns:svg="http://www.w3.org/2000/svg" xmlns="&ns_svg;" xmlns:xlink="&ns_xlink;"
	 width="61.402" height="77.785" viewBox="-3.334 -9.533 61.402 77.785"
	 overflow="visible" enable-background="new -3.334 -9.533 61.402 77.785" xml:space="preserve">
<g id="silkscreen">
	<rect id="Board" x="-1.019" y="-7.577" fill="none" stroke="#A0A0A0" stroke-width="0.25" width="56.422" height="74.054"/>
	<g id="Text">
		<g>
			<g>
				<g>
					<path fill="#8C8C8C" d="M3.084-3.966c0,0.107-0.095,0.161-0.278,0.161H1.024v-2.482h1.781c0.185,0,0.278,0.052,0.278,0.156
						c0,0.107-0.095,0.161-0.278,0.161H1.433v0.77h0.556c0.183,0,0.276,0.052,0.276,0.156c0,0.108-0.096,0.161-0.276,0.161H1.433
						v0.763h1.372C2.989-4.123,3.084-4.071,3.084-3.966"/>
					<path fill="#8C8C8C" d="M6.094-3.807h-0.55L4.446-5.719v1.701c0,0.139-0.065,0.212-0.203,0.212
						c-0.141,0-0.208-0.071-0.208-0.212v-2.271h0.548l1.1,1.936v-1.725c0-0.139,0.069-0.213,0.205-0.213
						c0.141,0,0.207,0.072,0.207,0.213V-3.807"/>
					<path fill="#8C8C8C" d="M9.103-3.959c0,0.042-0.021,0.08-0.063,0.111C9.003-3.818,8.954-3.803,8.9-3.803
						c-0.103,0-0.172-0.056-0.216-0.167L8.538-4.342H7.612l-0.14,0.373C7.428-3.858,7.358-3.802,7.254-3.802
						c-0.055,0-0.104-0.016-0.146-0.045C7.069-3.879,7.051-3.916,7.051-3.958c0-0.022,0.009-0.058,0.023-0.098l0.807-2.105
						c0.032-0.083,0.099-0.123,0.2-0.123s0.167,0.042,0.2,0.122l0.798,2.105C9.094-4.017,9.103-3.986,9.103-3.959 M8.423-4.659
						L8.078-5.555l-0.34,0.896H8.423"/>
				</g>
			</g>
		</g>
		<g>
			<g>
				<g>
					<path fill="#8C8C8C" d="M3.056,4.807c0,0.139-0.07,0.212-0.209,0.212c-0.138,0-0.204-0.07-0.204-0.212V2.973L2.229,3.424v0.031
						c0,0.138-0.068,0.212-0.204,0.212c-0.141,0-0.21-0.071-0.21-0.212V3.423l-0.409-0.45v1.834c0,0.139-0.068,0.212-0.204,0.212
						c-0.14,0-0.211-0.07-0.211-0.212V2.538h0.526L2.024,3.1l0.504-0.562h0.529L3.056,4.807"/>
					<path fill="#8C8C8C" d="M6.071,4.663c0,0.096-0.05,0.184-0.142,0.251c-0.094,0.07-0.205,0.104-0.338,0.104H4.571
						c-0.148,0-0.278-0.04-0.393-0.119C4.065,4.82,4.011,4.729,4.011,4.624c0-0.121,0.071-0.182,0.214-0.182
						c0.114,0,0.178,0.06,0.2,0.179c0.011,0.054,0.054,0.081,0.133,0.081h1.008c0.058,0,0.085-0.012,0.085-0.038
						c0-0.011-0.013-0.034-0.042-0.063L4.117,3.129c-0.072-0.07-0.108-0.145-0.108-0.232c0-0.104,0.047-0.193,0.142-0.257
						c0.096-0.067,0.221-0.102,0.373-0.102h0.985c0.146,0,0.275,0.042,0.386,0.127c0.114,0.083,0.17,0.175,0.17,0.286
						c0,0.121-0.067,0.179-0.204,0.179c-0.125,0-0.194-0.058-0.209-0.175C5.642,2.89,5.591,2.858,5.5,2.858H4.514
						c-0.063,0-0.09,0.018-0.09,0.045c0,0.018,0.012,0.033,0.034,0.058l1.494,1.474C6.029,4.504,6.071,4.581,6.071,4.663"/>
					<path fill="#8C8C8C" d="M9.088,4.849c0,0.115-0.066,0.17-0.194,0.17H7.301c-0.186,0-0.275-0.053-0.275-0.161
						c0-0.104,0.091-0.155,0.275-0.155h0.544v-1.85H7.301c-0.186,0-0.275-0.054-0.275-0.16c0-0.104,0.091-0.155,0.275-0.155h0.957
						v2.166h0.415V4.102c0-0.135,0.07-0.208,0.208-0.208c0.139,0,0.208,0.07,0.208,0.208L9.088,4.849"/>
				</g>
			</g>
		</g>
		<g>
			<g>
				<g>
					<path fill="#8C8C8C" d="M2.974,13.813c0,0.137-0.069,0.211-0.208,0.211s-0.205-0.071-0.205-0.211v-1.835l-0.413,0.451v0.03
						c0,0.139-0.068,0.212-0.204,0.212c-0.14,0-0.21-0.072-0.21-0.212v-0.03l-0.409-0.451v1.834c0,0.137-0.07,0.211-0.206,0.211
						c-0.141,0-0.21-0.071-0.21-0.211v-2.27h0.528l0.506,0.562l0.506-0.562h0.525V13.813"/>
					<path fill="#8C8C8C" d="M5.985,13.667c0,0.096-0.046,0.184-0.143,0.252c-0.091,0.07-0.201,0.104-0.335,0.104h-1.02
						c-0.15,0-0.282-0.039-0.396-0.12c-0.109-0.079-0.163-0.17-0.163-0.275c0-0.121,0.071-0.183,0.214-0.183
						c0.113,0,0.178,0.061,0.202,0.179c0.009,0.054,0.051,0.082,0.13,0.082h1.008c0.06,0,0.087-0.011,0.087-0.037
						c0-0.011-0.015-0.033-0.044-0.063l-1.494-1.474c-0.07-0.067-0.106-0.143-0.106-0.23c0-0.104,0.048-0.194,0.142-0.257
						c0.097-0.066,0.22-0.101,0.373-0.101h0.985c0.146,0,0.277,0.042,0.386,0.126c0.113,0.084,0.171,0.177,0.171,0.286
						c0,0.12-0.07,0.179-0.208,0.179c-0.123,0-0.194-0.058-0.21-0.176c-0.009-0.064-0.058-0.097-0.148-0.097H4.426
						c-0.058,0-0.087,0.019-0.087,0.046c0,0.018,0.011,0.033,0.034,0.058l1.492,1.473C5.946,13.509,5.985,13.588,5.985,13.667"/>
					<path fill="#8C8C8C" d="M8.996,13.864c0,0.107-0.093,0.159-0.274,0.159H6.935v-1.079c0-0.092,0.038-0.167,0.115-0.227
						c0.082-0.06,0.184-0.094,0.302-0.094H8.58v-0.766H7.211c-0.186,0-0.275-0.054-0.275-0.161c0-0.104,0.091-0.156,0.275-0.156
						H8.58c0.119,0,0.218,0.032,0.298,0.097c0.079,0.06,0.12,0.139,0.12,0.235v0.75c0,0.092-0.041,0.168-0.12,0.23
						c-0.08,0.059-0.179,0.089-0.298,0.089H7.352v0.764H8.72C8.905,13.709,8.996,13.759,8.996,13.864"/>
				</g>
			</g>
		</g>
		<g>
			<g>
				<g>
					<path fill="#8C8C8C" d="M3.002,22.867c0,0.139-0.07,0.212-0.208,0.212s-0.207-0.071-0.207-0.212v-1.833l-0.415,0.45v0.029
						c0,0.139-0.066,0.212-0.204,0.212c-0.141,0-0.208-0.071-0.208-0.212v-0.029l-0.41-0.451v1.834c0,0.139-0.07,0.212-0.204,0.212
						c-0.142,0-0.207-0.071-0.207-0.212v-2.271h0.523l0.505,0.563l0.508-0.563h0.527V22.867"/>
					<path fill="#8C8C8C" d="M6.012,22.723c0,0.096-0.049,0.184-0.14,0.252c-0.094,0.071-0.205,0.105-0.335,0.105H4.517
						c-0.151,0-0.282-0.039-0.396-0.119c-0.109-0.08-0.164-0.171-0.164-0.276c0-0.121,0.07-0.183,0.214-0.183
						c0.115,0,0.181,0.061,0.2,0.179c0.008,0.054,0.053,0.082,0.133,0.082h1.005c0.063,0,0.091-0.011,0.091-0.038
						c0-0.012-0.016-0.034-0.044-0.063l-1.494-1.473c-0.072-0.068-0.106-0.144-0.106-0.231c0-0.103,0.048-0.193,0.142-0.256
						c0.098-0.068,0.221-0.101,0.375-0.101h0.984c0.146,0,0.274,0.042,0.386,0.126c0.113,0.083,0.169,0.175,0.169,0.286
						c0,0.12-0.069,0.179-0.204,0.179c-0.124,0-0.194-0.058-0.211-0.175c-0.01-0.064-0.061-0.097-0.148-0.097h-0.99
						c-0.059,0-0.088,0.017-0.088,0.044c0,0.018,0.009,0.033,0.034,0.058l1.494,1.474C5.975,22.565,6.012,22.644,6.012,22.723"/>
					<path fill="#8C8C8C" d="M9.022,22.763c0,0.089-0.042,0.166-0.123,0.228c-0.079,0.058-0.177,0.088-0.296,0.088H7.235
						c-0.184,0-0.277-0.052-0.277-0.16c0-0.104,0.096-0.156,0.277-0.156h1.368v-0.574c0-0.125-0.073-0.19-0.224-0.19H7.651
						c-0.187,0-0.276-0.052-0.276-0.155c0-0.105,0.09-0.161,0.276-0.161h0.733c0.14,0,0.208-0.066,0.208-0.196v-0.574H7.236
						c-0.185,0-0.277-0.053-0.277-0.16c0-0.104,0.096-0.156,0.277-0.156h1.368c0.108,0,0.205,0.028,0.289,0.083
						c0.082,0.057,0.122,0.118,0.122,0.192v0.692c0,0.107-0.054,0.199-0.157,0.275c0.108,0.095,0.167,0.2,0.167,0.325v0.602"/>
				</g>
			</g>
		</g>
		<g>
			<g>
				<g>
					<path fill="#8C8C8C" d="M2.981,31.768c0,0.037-0.021,0.074-0.063,0.107c-0.043,0.029-0.093,0.045-0.146,0.045
						c-0.074,0-0.146-0.037-0.208-0.107l-1.133-1.235H1.333v1.137c0,0.142-0.067,0.22-0.205,0.22c-0.14,0-0.21-0.063-0.21-0.179
						v-2.306h1.45c0.172,0,0.316,0.052,0.433,0.145c0.121,0.096,0.179,0.213,0.179,0.354v0.142c0,0.144-0.06,0.265-0.184,0.356
						c-0.121,0.093-0.274,0.136-0.467,0.136H1.933l0.969,1.063C2.957,31.692,2.981,31.735,2.981,31.768 M2.568,30.074v-0.123
						c0-0.137-0.087-0.201-0.258-0.201H1.331v0.501H2.31C2.479,30.258,2.568,30.197,2.568,30.074"/>
					<path fill="#8C8C8C" d="M5.989,31.758c0,0.109-0.094,0.162-0.277,0.162H3.924v-2.48h1.788c0.185,0,0.277,0.053,0.277,0.156
						c0,0.107-0.094,0.16-0.277,0.16H4.339v0.771h0.557c0.185,0,0.275,0.054,0.275,0.154c0,0.107-0.092,0.162-0.275,0.162H4.339
						v0.762h1.373C5.896,31.604,5.989,31.655,5.989,31.758"/>
					<path fill="#8C8C8C" d="M9.001,31.563c0,0.094-0.046,0.185-0.142,0.25c-0.089,0.068-0.204,0.105-0.335,0.105H7.502
						c-0.148,0-0.277-0.041-0.392-0.121c-0.108-0.076-0.165-0.172-0.165-0.273c0-0.121,0.07-0.18,0.213-0.18
						c0.114,0,0.18,0.059,0.201,0.176c0.01,0.058,0.053,0.08,0.132,0.08H8.5c0.06,0,0.087-0.016,0.087-0.033
						c0-0.014-0.015-0.032-0.043-0.063L7.05,30.028c-0.072-0.068-0.109-0.146-0.109-0.229c0-0.104,0.05-0.194,0.142-0.257
						c0.097-0.068,0.225-0.102,0.374-0.102h0.99c0.144,0,0.275,0.043,0.382,0.127C8.942,29.651,9,29.741,9,29.856
						c0,0.119-0.067,0.178-0.205,0.178c-0.125,0-0.193-0.061-0.211-0.176c-0.011-0.063-0.06-0.098-0.151-0.098H7.444
						c-0.061,0-0.089,0.021-0.089,0.047c0,0.019,0.01,0.03,0.035,0.061l1.492,1.475C8.962,31.405,9.001,31.483,9.001,31.563"/>
				</g>
			</g>
		</g>
		<g>
			<g>
				<g>
					<path fill="#8C8C8C" d="M2.989,40.481c0,0.099-0.048,0.185-0.141,0.252c-0.094,0.07-0.206,0.104-0.337,0.104H1.491
						c-0.151,0-0.281-0.037-0.394-0.121c-0.111-0.075-0.165-0.174-0.165-0.272c0-0.117,0.072-0.18,0.214-0.18
						c0.113,0,0.18,0.063,0.201,0.178c0.011,0.059,0.055,0.08,0.133,0.08h1.005c0.061,0,0.089-0.015,0.089-0.039
						c0-0.01-0.017-0.027-0.043-0.062l-1.494-1.474c-0.073-0.069-0.107-0.145-0.107-0.229c0-0.105,0.046-0.195,0.142-0.261
						c0.096-0.067,0.222-0.101,0.375-0.101h0.986c0.146,0,0.273,0.039,0.386,0.125c0.114,0.084,0.17,0.179,0.17,0.289
						c0,0.119-0.07,0.179-0.204,0.179c-0.125,0-0.195-0.06-0.209-0.177c-0.013-0.063-0.061-0.096-0.15-0.096H1.436
						c-0.061,0-0.089,0.02-0.089,0.045c0,0.021,0.013,0.027,0.034,0.059l1.493,1.476C2.948,40.326,2.989,40.405,2.989,40.481"/>
					<path fill="#8C8C8C" d="M5.997,40.678c0,0.107-0.091,0.16-0.275,0.16H3.943v-2.266c0-0.143,0.066-0.215,0.205-0.215
						c0.138,0,0.209,0.067,0.209,0.215v1.947H5.72C5.904,40.524,5.997,40.574,5.997,40.678"/>
					<path fill="#8C8C8C" d="M8.867,39.375c0,0.168-0.061,0.291-0.18,0.383c-0.119,0.094-0.286,0.137-0.501,0.137H7.214v0.73
						c0,0.135-0.068,0.209-0.207,0.209c-0.061,0-0.112-0.018-0.15-0.045c-0.038-0.029-0.059-0.072-0.059-0.121v-2.311h1.441
						c0.185,0,0.336,0.047,0.451,0.137c0.116,0.092,0.176,0.211,0.176,0.365L8.867,39.375 M8.454,39.375V38.86
						c0-0.127-0.084-0.188-0.252-0.188H7.215v0.908h1.001C8.374,39.582,8.454,39.514,8.454,39.375"/>
				</g>
			</g>
		</g>
		<g>
			<g>
				<g>
					<path fill="#8C8C8C" d="M2.98,49.699c0,0.096-0.047,0.184-0.143,0.252c-0.091,0.07-0.206,0.104-0.334,0.104H1.48
						c-0.15,0-0.277-0.041-0.394-0.121c-0.11-0.08-0.167-0.174-0.167-0.274c0-0.121,0.072-0.181,0.218-0.181
						c0.114,0,0.178,0.062,0.2,0.178c0.011,0.056,0.054,0.08,0.13,0.08h1.008c0.059,0,0.087-0.016,0.087-0.034
						c0-0.017-0.016-0.033-0.044-0.063L1.026,48.16c-0.071-0.066-0.108-0.146-0.108-0.229c0-0.104,0.048-0.191,0.143-0.257
						c0.097-0.067,0.222-0.104,0.373-0.104h0.988c0.145,0,0.275,0.043,0.384,0.125c0.114,0.086,0.172,0.179,0.172,0.291
						c0,0.119-0.071,0.177-0.207,0.177c-0.124,0-0.192-0.063-0.209-0.177c-0.008-0.063-0.061-0.1-0.151-0.1H1.421
						c-0.058,0-0.088,0.021-0.088,0.051c0,0.019,0.012,0.027,0.034,0.06l1.494,1.478C2.941,49.541,2.98,49.621,2.98,49.699"/>
					<path fill="#8C8C8C" d="M5.991,47.988c0,0.113-0.07,0.174-0.204,0.174c-0.141,0-0.211-0.072-0.211-0.215v-0.059H5.164v1.989
						c0,0.117-0.068,0.175-0.208,0.175c-0.138,0-0.208-0.072-0.208-0.214v-1.952H4.34v0.063c0,0.135-0.069,0.209-0.206,0.209
						c-0.139,0-0.21-0.07-0.21-0.209v-0.382h2.063v0.414"/>
					<path fill="#8C8C8C" d="M8.873,48.592c0,0.166-0.06,0.291-0.183,0.383c-0.12,0.101-0.287,0.139-0.501,0.139H7.216v0.73
						c0,0.139-0.065,0.213-0.204,0.213c-0.062,0-0.112-0.019-0.15-0.048c-0.04-0.026-0.061-0.069-0.061-0.12v-2.312h1.442
						c0.186,0,0.337,0.045,0.45,0.135c0.115,0.097,0.177,0.216,0.177,0.369L8.873,48.592 M8.458,48.592v-0.516
						c0-0.127-0.084-0.188-0.251-0.188H7.219v0.905h1.002C8.377,48.799,8.458,48.729,8.458,48.592"/>
				</g>
			</g>
		</g>
		<g>
			<g>
				<g>
					<path fill="#8C8C8C" d="M2.92,57.752c0,0.125-0.031,0.238-0.098,0.332l-0.425,0.652C2.286,58.91,2.09,59.002,1.81,59.002H1.132
						c-0.184,0-0.276-0.057-0.276-0.162c0-0.104,0.094-0.158,0.276-0.158h0.14v-1.848h-0.14c-0.184,0-0.276-0.053-0.276-0.158
						c0-0.104,0.094-0.158,0.276-0.158H1.85c0.252,0,0.438,0.098,0.561,0.281l0.407,0.639C2.884,57.541,2.92,57.651,2.92,57.752
						 M2.507,57.764c0-0.059-0.026-0.131-0.083-0.215L2.03,56.942c-0.042-0.065-0.114-0.098-0.214-0.098H1.684v1.848h0.141
						c0.101,0,0.171-0.026,0.215-0.096l0.411-0.641C2.488,57.885,2.507,57.824,2.507,57.764"/>
					<path fill="#8C8C8C" d="M5.938,58.844c0,0.107-0.094,0.158-0.277,0.158h-1.5c-0.184,0-0.276-0.051-0.276-0.158
						c0-0.104,0.095-0.158,0.276-0.158h0.54v-1.85H4.152c-0.185,0-0.277-0.055-0.277-0.16c0-0.104,0.095-0.158,0.277-0.158h1.511
						c0.183,0,0.276,0.058,0.276,0.158c0,0.105-0.094,0.16-0.276,0.16H5.115v1.85h0.547C5.844,58.686,5.938,58.738,5.938,58.844"/>
					<path fill="#8C8C8C" d="M8.956,58.85c0,0.041-0.022,0.076-0.064,0.107C8.848,58.99,8.8,59.002,8.745,59.002
						c-0.072,0-0.142-0.035-0.208-0.107l-1.133-1.233H7.306V58.8c0,0.14-0.07,0.216-0.207,0.216c-0.138,0-0.208-0.06-0.208-0.177
						v-2.31h1.449c0.172,0,0.316,0.054,0.435,0.146c0.119,0.099,0.181,0.216,0.181,0.354v0.143c0,0.145-0.062,0.266-0.185,0.357
						c-0.121,0.094-0.276,0.135-0.47,0.135h-0.39l0.968,1.064C8.928,58.774,8.956,58.815,8.956,58.85 M8.541,57.16v-0.125
						c0-0.137-0.086-0.201-0.256-0.201H7.306v0.502h0.979C8.453,57.34,8.541,57.281,8.541,57.16"/>
				</g>
			</g>
		</g>
		<g>
			<path fill="#8C8C8C" d="M48.038-5.575c0,0.06-0.018,0.109-0.038,0.163l-0.804,1.57c-0.03,0.07-0.104,0.104-0.191,0.104
				c-0.1,0-0.17-0.036-0.203-0.104l-0.809-1.57c-0.01-0.017-0.016-0.025-0.016-0.032c-0.021-0.03-0.022-0.073-0.022-0.131v-0.434
				c0-0.139,0.065-0.212,0.211-0.212c0.136,0,0.207,0.069,0.207,0.212v0.458l0.623,1.217l0.627-1.217v-0.461
				c0-0.137,0.069-0.209,0.213-0.209c0.137,0,0.207,0.068,0.207,0.209L48.038-5.575"/>
			<path fill="#8C8C8C" d="M50.887-3.95c0,0.142-0.07,0.214-0.214,0.214c-0.135,0-0.206-0.071-0.206-0.214v-1.831l-0.417,0.45v0.026
				c0,0.142-0.069,0.214-0.209,0.214c-0.138,0-0.208-0.07-0.208-0.214V-5.33l-0.414-0.452v1.831c0,0.142-0.07,0.213-0.206,0.213
				c-0.146,0-0.216-0.07-0.216-0.213v-2.267h0.532l0.51,0.562l0.513-0.562h0.531L50.887-3.95"/>
			<path fill="#8C8C8C" d="M53.698-5.808c0,0.116-0.068,0.174-0.209,0.174c-0.139,0-0.209-0.07-0.209-0.214v-0.057h-0.416v1.986
				c0,0.117-0.071,0.176-0.207,0.176c-0.143,0-0.211-0.072-0.211-0.214v-1.95h-0.412v0.061c0,0.139-0.073,0.211-0.209,0.211
				c-0.143,0-0.211-0.07-0.211-0.211v-0.377h2.08v0.41"/>
		</g>
		<g>
			<path fill="#8C8C8C" d="M48.126,4.651c0,0.124-0.061,0.233-0.184,0.323c-0.121,0.094-0.271,0.139-0.438,0.139h-0.83
				c-0.175,0-0.332-0.047-0.453-0.139c-0.117-0.092-0.178-0.207-0.178-0.343V3.756c0-0.142,0.065-0.274,0.19-0.401l0.558-0.544
				c0.126-0.124,0.297-0.182,0.508-0.182h0.54c0.188,0,0.279,0.052,0.279,0.156c0,0.103-0.094,0.161-0.279,0.161h-0.485
				c-0.078,0-0.129,0.003-0.16,0.014c-0.021,0.007-0.063,0.037-0.106,0.085l-0.521,0.514c-0.07,0.063-0.104,0.143-0.104,0.241v0.808
				c0,0.126,0.082,0.189,0.251,0.189h0.771c0.155,0,0.229-0.063,0.229-0.189V4.306H47.36c-0.187,0-0.275-0.052-0.275-0.156
				c0-0.108,0.09-0.161,0.275-0.161h0.769L48.126,4.651"/>
			<path fill="#8C8C8C" d="M51.161,5.112h-0.553l-1.109-1.915v1.7c0,0.142-0.073,0.214-0.209,0.214c-0.141,0-0.212-0.07-0.212-0.214
				V2.63h0.557l1.108,1.934V2.84c0-0.142,0.068-0.212,0.21-0.212c0.137,0,0.208,0.067,0.208,0.212V5.112"/>
			<path fill="#8C8C8C" d="M54.2,3.859c0,0.127-0.032,0.237-0.102,0.336l-0.432,0.651c-0.112,0.174-0.31,0.264-0.59,0.264h-0.682
				c-0.185,0-0.283-0.057-0.283-0.16c0-0.104,0.102-0.158,0.283-0.158h0.142V2.945h-0.142c-0.185,0-0.283-0.057-0.283-0.161
				s0.102-0.156,0.283-0.156h0.727c0.256,0,0.439,0.092,0.563,0.279l0.411,0.636C54.166,3.651,54.2,3.756,54.2,3.859 M53.782,3.873
				c0-0.06-0.024-0.136-0.084-0.217l-0.396-0.61c-0.042-0.063-0.112-0.097-0.218-0.097h-0.13v1.848h0.142
				c0.1,0,0.174-0.033,0.219-0.099l0.414-0.64C53.764,3.992,53.782,3.931,53.782,3.873"/>
		</g>
		<g>
			<path fill="#8C8C8C" d="M49.612,13.776c0,0.103-0.09,0.16-0.273,0.16h-1.807v-1.079c0-0.096,0.033-0.168,0.117-0.228
				c0.08-0.062,0.188-0.092,0.306-0.092h1.237v-0.766h-1.381c-0.183,0-0.279-0.056-0.279-0.159c0-0.105,0.098-0.158,0.279-0.158
				h1.381c0.121,0,0.224,0.029,0.299,0.096c0.082,0.063,0.123,0.14,0.123,0.234v0.755c0,0.092-0.039,0.168-0.123,0.23
				c-0.075,0.057-0.178,0.09-0.299,0.09h-1.236v0.763h1.383C49.522,13.618,49.612,13.672,49.612,13.776"/>
			<path fill="#8C8C8C" d="M52.655,13.274c0,0.193-0.075,0.352-0.235,0.476c-0.158,0.125-0.357,0.187-0.609,0.187h-1.229v-2.482
				h1.25c0.252,0,0.446,0.062,0.604,0.194c0.153,0.128,0.229,0.294,0.229,0.509c0,0.236-0.088,0.417-0.278,0.544
				c0.112,0.08,0.182,0.16,0.225,0.239C52.639,13.018,52.655,13.129,52.655,13.274 M52.239,12.144c0-0.252-0.147-0.374-0.451-0.374
				h-0.795v0.77h0.797C52.092,12.541,52.239,12.409,52.239,12.144 M52.239,13.237c0-0.254-0.153-0.38-0.457-0.38h-0.789v0.761h0.797
				C52.092,13.618,52.239,13.493,52.239,13.237"/>
		</g>
		<g>
			<path fill="#8C8C8C" d="M49.502,22.864c0,0.106-0.097,0.161-0.284,0.161h-1.803v-1.077c0-0.095,0.039-0.169,0.121-0.226
				c0.076-0.062,0.178-0.096,0.303-0.096h1.236V20.86h-1.379c-0.188,0-0.283-0.054-0.283-0.162c0-0.101,0.096-0.156,0.283-0.156
				h1.379c0.119,0,0.218,0.032,0.299,0.096c0.082,0.059,0.123,0.136,0.123,0.234v0.751c0,0.096-0.041,0.172-0.123,0.23
				c-0.078,0.059-0.178,0.092-0.299,0.092h-1.236v0.761h1.377C49.409,22.706,49.502,22.758,49.502,22.864"/>
			<path fill="#8C8C8C" d="M52.538,22.869c0,0.043-0.021,0.081-0.063,0.112c-0.037,0.03-0.09,0.047-0.146,0.047
				c-0.098,0-0.172-0.058-0.215-0.168l-0.147-0.371H51.03l-0.141,0.371c-0.045,0.111-0.113,0.168-0.222,0.168
				c-0.063,0-0.104-0.018-0.146-0.047c-0.035-0.031-0.063-0.068-0.063-0.112c0-0.022,0.016-0.059,0.022-0.097l0.813-2.102
				c0.025-0.083,0.103-0.125,0.204-0.125c0.103,0,0.169,0.042,0.198,0.125l0.813,2.102C52.526,22.812,52.538,22.846,52.538,22.869
				 M51.848,22.17L51.5,21.273l-0.344,0.897H51.848"/>
		</g>
		<g>
			<path fill="#8C8C8C" d="M49.417,31.75c0,0.113-0.063,0.172-0.192,0.172H47.62c-0.186,0-0.279-0.053-0.279-0.16
				c0-0.102,0.095-0.156,0.279-0.156h0.548v-1.848H47.62c-0.186,0-0.279-0.054-0.279-0.16c0-0.103,0.095-0.158,0.279-0.158h0.967
				v2.164h0.415v-0.6c0-0.137,0.071-0.213,0.213-0.213c0.139,0,0.206,0.07,0.206,0.213L49.417,31.75"/>
			<path fill="#8C8C8C" d="M52.45,31.77c0,0.043-0.021,0.08-0.063,0.107c-0.039,0.031-0.09,0.051-0.143,0.051
				c-0.103,0-0.175-0.063-0.218-0.168l-0.146-0.371h-0.934L50.8,31.76c-0.042,0.107-0.108,0.168-0.217,0.168
				c-0.063,0-0.104-0.02-0.146-0.051c-0.039-0.025-0.063-0.064-0.063-0.107c0-0.021,0.01-0.063,0.021-0.1l0.814-2.104
				c0.026-0.086,0.1-0.125,0.201-0.125c0.103,0,0.168,0.039,0.2,0.125l0.809,2.104C52.442,31.711,52.45,31.744,52.45,31.77
				 M51.762,31.069l-0.346-0.897l-0.347,0.897H51.762"/>
		</g>
		<g>
			<path fill="#8C8C8C" d="M49.536,40.75c0,0.113-0.07,0.172-0.203,0.172h-1.604c-0.188,0-0.281-0.055-0.281-0.164
				c0-0.098,0.096-0.154,0.281-0.154h0.551v-1.85h-0.551c-0.188,0-0.281-0.055-0.281-0.162c0-0.1,0.096-0.156,0.281-0.156H48.7
				v2.168h0.414v-0.602c0-0.139,0.072-0.213,0.209-0.213c0.141,0,0.213,0.072,0.213,0.213V40.75"/>
			<path fill="#8C8C8C" d="M52.573,40.256c0,0.193-0.076,0.355-0.24,0.48c-0.162,0.127-0.367,0.186-0.612,0.186h-1.229V38.44h1.246
				c0.258,0,0.455,0.063,0.604,0.189c0.154,0.137,0.229,0.301,0.229,0.514c0,0.236-0.096,0.414-0.281,0.545
				c0.107,0.08,0.187,0.16,0.221,0.238C52.553,40.004,52.573,40.112,52.573,40.256 M52.157,39.129c0-0.25-0.152-0.373-0.457-0.373
				h-0.791v0.77h0.797C52.007,39.522,52.157,39.391,52.157,39.129 M52.157,40.219c0-0.254-0.154-0.379-0.463-0.379h-0.785v0.762
				h0.797C52.007,40.604,52.157,40.473,52.157,40.219"/>
		</g>
		<g>
			<path fill="#8C8C8C" d="M48.149,48.233c0,0.058-0.013,0.105-0.037,0.16l-0.799,1.566c-0.033,0.066-0.104,0.104-0.199,0.104
				s-0.159-0.031-0.196-0.104l-0.812-1.566c-0.008-0.018-0.019-0.022-0.019-0.033c-0.018-0.022-0.024-0.071-0.024-0.127v-0.434
				c0-0.143,0.071-0.215,0.215-0.215c0.14,0,0.209,0.07,0.209,0.215v0.457l0.625,1.219l0.623-1.219v-0.461
				c0-0.139,0.072-0.211,0.211-0.211c0.14,0,0.209,0.066,0.209,0.211v0.438"/>
			<path fill="#8C8C8C" d="M51.186,48.817c0,0.123-0.033,0.236-0.101,0.334l-0.428,0.646c-0.116,0.178-0.313,0.268-0.596,0.268
				h-0.688c-0.188,0-0.276-0.059-0.276-0.16c0-0.104,0.094-0.155,0.276-0.155h0.142v-1.851h-0.142c-0.188,0-0.276-0.055-0.276-0.162
				c0-0.102,0.094-0.155,0.276-0.155h0.726c0.256,0,0.441,0.097,0.563,0.28l0.413,0.64C51.151,48.608,51.186,48.709,51.186,48.817
				 M50.77,48.828c0-0.061-0.031-0.137-0.084-0.215l-0.396-0.611c-0.04-0.064-0.114-0.096-0.22-0.096h-0.133v1.846h0.145
				c0.101,0,0.175-0.029,0.216-0.094l0.414-0.645C50.752,48.946,50.77,48.891,50.77,48.828"/>
			<path fill="#8C8C8C" d="M54.225,48.817c0,0.123-0.029,0.236-0.098,0.334l-0.431,0.646c-0.113,0.178-0.313,0.268-0.592,0.268
				h-0.687c-0.188,0-0.274-0.059-0.274-0.16c0-0.104,0.092-0.155,0.274-0.155h0.142v-1.851h-0.142c-0.188,0-0.274-0.055-0.274-0.162
				c0-0.102,0.092-0.155,0.274-0.155h0.724c0.258,0,0.439,0.097,0.563,0.28l0.414,0.64C54.196,48.608,54.225,48.709,54.225,48.817
				 M53.809,48.828c0-0.061-0.022-0.137-0.082-0.215l-0.396-0.611c-0.038-0.064-0.113-0.096-0.218-0.096H52.98v1.846h0.145
				c0.104,0,0.176-0.029,0.218-0.094l0.409-0.645C53.793,48.946,53.809,48.891,53.809,48.828"/>
		</g>
		<g>
			<path fill="#8C8C8C" d="M47.981,58.627c0,0.123-0.063,0.229-0.188,0.322c-0.12,0.096-0.268,0.139-0.434,0.139h-0.834
				c-0.178,0-0.33-0.047-0.451-0.139c-0.117-0.094-0.178-0.205-0.178-0.344v-0.871c0-0.139,0.064-0.272,0.189-0.401l0.559-0.545
				c0.125-0.125,0.299-0.183,0.51-0.183h0.539c0.185,0,0.281,0.056,0.281,0.154c0,0.104-0.1,0.16-0.281,0.16H47.21
				c-0.084,0-0.138,0.006-0.165,0.02c-0.021,0.013-0.063,0.035-0.11,0.088l-0.521,0.511c-0.067,0.065-0.104,0.147-0.104,0.243v0.808
				c0,0.125,0.084,0.188,0.246,0.188h0.77c0.158,0,0.234-0.063,0.234-0.188v-0.304h-0.353c-0.18,0-0.277-0.053-0.277-0.154
				c0-0.107,0.095-0.16,0.277-0.16h0.769L47.981,58.627"/>
			<path fill="#8C8C8C" d="M51.016,59.088h-0.556l-1.108-1.918v1.701c0,0.141-0.064,0.213-0.205,0.213s-0.209-0.072-0.209-0.213
				v-2.268h0.549l1.108,1.936v-1.729c0-0.14,0.071-0.213,0.21-0.213c0.145,0,0.211,0.065,0.211,0.213V59.088"/>
			<path fill="#8C8C8C" d="M54.053,57.834c0,0.127-0.033,0.238-0.1,0.334l-0.429,0.646c-0.115,0.176-0.313,0.268-0.594,0.268h-0.685
				c-0.188,0-0.286-0.061-0.286-0.164s0.098-0.158,0.286-0.158h0.132v-1.846h-0.132c-0.188,0-0.286-0.059-0.286-0.158
				c0-0.105,0.098-0.158,0.286-0.158h0.726c0.252,0,0.438,0.094,0.563,0.277l0.408,0.641C54.016,57.627,54.053,57.731,54.053,57.834
				 M53.636,57.846c0-0.059-0.026-0.137-0.088-0.217l-0.396-0.607c-0.039-0.063-0.11-0.098-0.215-0.098h-0.131v1.85h0.139
				c0.104,0,0.178-0.028,0.222-0.098l0.407-0.641C53.616,57.967,53.636,57.906,53.636,57.846"/>
		</g>
		<g>
			<path fill="#8E8E8E" d="M17.999,45.33c0,0.172-0.018,0.346-0.051,0.521c-0.034,0.174-0.084,0.332-0.15,0.479
				c-0.063,0.143-0.144,0.262-0.234,0.355c-0.092,0.096-0.197,0.146-0.314,0.151h-2.556c-0.059,0-0.106-0.028-0.146-0.096
				c-0.041-0.063-0.06-0.146-0.06-0.231v-2.355c0-0.092,0.02-0.17,0.06-0.233c0.041-0.065,0.09-0.099,0.146-0.099h2.513
				c0.124,0,0.234,0.048,0.333,0.14c0.1,0.095,0.183,0.211,0.25,0.356c0.07,0.146,0.122,0.308,0.157,0.484
				C17.981,44.981,17.999,45.155,17.999,45.33z M14.9,44.487v1.688h2.215c0.097,0,0.178-0.026,0.241-0.086s0.114-0.129,0.147-0.213
				c0.036-0.082,0.062-0.172,0.073-0.271c0.013-0.101,0.021-0.189,0.021-0.273c0-0.082-0.007-0.172-0.021-0.271
				c-0.012-0.102-0.038-0.188-0.073-0.27c-0.034-0.084-0.084-0.152-0.147-0.213s-0.146-0.086-0.241-0.086L14.9,44.487L14.9,44.487z"
				/>
			<path fill="#8E8E8E" d="M21.801,46.508c0,0.092-0.021,0.17-0.061,0.236c-0.04,0.064-0.09,0.096-0.146,0.096
				c-0.028,0-0.056-0.01-0.077-0.025c-0.025-0.02-0.045-0.043-0.066-0.065c-0.017-0.024-0.028-0.058-0.037-0.067
				c-0.12-0.236-0.239-0.425-0.364-0.558c-0.125-0.134-0.257-0.231-0.395-0.31c-0.138-0.065-0.284-0.108-0.438-0.129
				c-0.155-0.016-0.318-0.02-0.494-0.02h-0.88v0.848c0,0.092-0.021,0.17-0.062,0.232c-0.042,0.063-0.09,0.098-0.145,0.098
				c-0.059,0-0.106-0.029-0.146-0.098c-0.041-0.063-0.06-0.146-0.06-0.232v-1.779c0-0.143,0.016-0.268,0.048-0.373
				c0.029-0.11,0.07-0.207,0.12-0.282c0.048-0.08,0.104-0.142,0.169-0.187c0.063-0.043,0.125-0.063,0.188-0.063h2.25
				c0.081,0,0.158,0.022,0.229,0.069c0.07,0.049,0.135,0.115,0.188,0.197c0.056,0.084,0.099,0.182,0.13,0.289
				c0.03,0.111,0.047,0.23,0.047,0.361c0,0.092-0.021,0.17-0.061,0.232c-0.04,0.063-0.09,0.102-0.146,0.102
				c-0.059,0-0.106-0.035-0.146-0.102c-0.041-0.063-0.061-0.146-0.061-0.232c0-0.07-0.016-0.127-0.046-0.174
				c-0.03-0.049-0.064-0.072-0.105-0.082h-2.259c-0.039,0-0.069,0.016-0.092,0.045c-0.022,0.025-0.036,0.063-0.043,0.105v0.356h0.88
				c0.254,0,0.48,0.022,0.687,0.071c0.204,0.045,0.389,0.119,0.552,0.224c0.167,0.104,0.313,0.239,0.444,0.408
				c0.131,0.17,0.249,0.377,0.353,0.62C21.783,46.381,21.801,46.446,21.801,46.508z"/>
			<path fill="#8E8E8E" d="M24.949,43.946c0.043-0.082,0.097-0.123,0.16-0.123c0.06,0,0.106,0.029,0.146,0.099
				c0.04,0.063,0.063,0.144,0.063,0.233c0,0.082-0.018,0.15-0.043,0.199l-0.006,0.008l-1.042,2.261
				c-0.053,0.104-0.118,0.188-0.196,0.26c-0.079,0.065-0.165,0.101-0.257,0.101c-0.085,0-0.168-0.025-0.243-0.09
				c-0.076-0.062-0.14-0.144-0.192-0.25l-1.047-2.25c-0.019-0.027-0.03-0.066-0.042-0.104c-0.013-0.041-0.018-0.082-0.018-0.129
				c0-0.095,0.02-0.171,0.061-0.234c0.04-0.063,0.089-0.098,0.147-0.098c0.067,0,0.122,0.045,0.163,0.131l1.004,2.149
				c0.021,0.037,0.045,0.078,0.076,0.121c0.028,0.043,0.061,0.064,0.092,0.064s0.063-0.021,0.093-0.064
				c0.029-0.043,0.054-0.084,0.071-0.121L24.949,43.946z"/>
			<path fill="#8E8E8E" d="M26.327,46.84c-0.08,0-0.156-0.023-0.226-0.072c-0.07-0.049-0.135-0.108-0.188-0.192
				c-0.054-0.084-0.095-0.185-0.124-0.294c-0.028-0.114-0.045-0.233-0.045-0.364c0-0.114,0.013-0.226,0.035-0.319
				c0.025-0.101,0.058-0.188,0.098-0.267c-0.04-0.08-0.071-0.168-0.098-0.271c-0.022-0.101-0.035-0.205-0.035-0.313
				c0-0.127,0.017-0.248,0.045-0.356c0.029-0.109,0.072-0.209,0.124-0.291c0.053-0.082,0.116-0.146,0.188-0.199
				c0.069-0.047,0.146-0.07,0.226-0.07h2.208c0.079,0,0.155,0.023,0.227,0.07c0.068,0.053,0.133,0.117,0.186,0.199
				c0.057,0.082,0.099,0.182,0.125,0.293c0.029,0.112,0.045,0.231,0.045,0.362c0,0.115-0.014,0.226-0.033,0.322
				c-0.021,0.101-0.059,0.188-0.1,0.264c0.041,0.078,0.071,0.171,0.1,0.271c0.021,0.095,0.033,0.197,0.033,0.31
				c0,0.129-0.016,0.25-0.045,0.36c-0.028,0.109-0.071,0.207-0.125,0.291c-0.053,0.084-0.114,0.146-0.188,0.195
				c-0.065,0.049-0.146,0.07-0.227,0.07L26.327,46.84L26.327,46.84z M26.31,44.487c-0.043,0-0.08,0.023-0.115,0.074
				c-0.032,0.051-0.049,0.107-0.049,0.183c0,0.071,0.017,0.135,0.049,0.185c0.033,0.049,0.072,0.071,0.115,0.071h2.244
				c0.044,0,0.082-0.022,0.112-0.067c0.032-0.048,0.047-0.104,0.047-0.181c0-0.069-0.017-0.131-0.049-0.188
				c-0.032-0.051-0.07-0.076-0.114-0.076H26.31z M28.551,46.176c0.044,0,0.081-0.025,0.114-0.076s0.05-0.106,0.05-0.18
				c0-0.074-0.019-0.135-0.05-0.184c-0.032-0.049-0.07-0.072-0.114-0.072h-2.245c-0.043,0-0.078,0.023-0.111,0.068
				c-0.031,0.047-0.047,0.104-0.047,0.182c0,0.068,0.016,0.131,0.049,0.182c0.033,0.055,0.072,0.08,0.113,0.08H28.551L28.551,46.176
				z"/>
			<path fill="#8E8E8E" d="M30.129,46.84c-0.08,0-0.154-0.023-0.226-0.072s-0.133-0.108-0.188-0.192
				c-0.054-0.084-0.095-0.185-0.124-0.294c-0.026-0.114-0.046-0.233-0.046-0.364c0-0.114,0.016-0.226,0.036-0.319
				c0.023-0.101,0.062-0.188,0.099-0.267c-0.037-0.08-0.07-0.168-0.099-0.271c-0.021-0.101-0.036-0.205-0.036-0.313
				c0-0.127,0.02-0.248,0.046-0.356c0.029-0.109,0.072-0.209,0.124-0.291c0.057-0.082,0.116-0.146,0.188-0.199
				c0.07-0.047,0.146-0.07,0.226-0.07h2.207c0.08,0,0.157,0.023,0.227,0.07c0.069,0.053,0.133,0.117,0.188,0.199
				c0.056,0.082,0.098,0.182,0.126,0.293c0.025,0.112,0.046,0.231,0.046,0.362c0,0.115-0.017,0.226-0.037,0.322
				c-0.021,0.101-0.06,0.188-0.097,0.264c0.037,0.078,0.068,0.171,0.097,0.271c0.021,0.099,0.037,0.201,0.037,0.313
				c0,0.13-0.021,0.25-0.046,0.359c-0.028,0.108-0.071,0.209-0.126,0.291c-0.056,0.084-0.113,0.146-0.188,0.194
				c-0.064,0.051-0.146,0.072-0.227,0.072L30.129,46.84L30.129,46.84z M30.11,44.487c-0.041,0-0.078,0.023-0.109,0.074
				c-0.034,0.051-0.053,0.107-0.053,0.183c0,0.071,0.019,0.135,0.053,0.185c0.029,0.049,0.068,0.071,0.109,0.071h2.246
				c0.045,0,0.082-0.022,0.111-0.067c0.033-0.048,0.049-0.104,0.049-0.181c0-0.069-0.018-0.131-0.051-0.188
				c-0.029-0.051-0.07-0.076-0.111-0.076H30.11z M32.354,46.176c0.043,0,0.082-0.025,0.112-0.076
				c0.034-0.051,0.052-0.106,0.052-0.18c0-0.074-0.019-0.135-0.052-0.184c-0.03-0.049-0.069-0.072-0.112-0.072h-2.246
				c-0.043,0-0.08,0.023-0.108,0.068c-0.032,0.047-0.052,0.104-0.052,0.182c0,0.068,0.02,0.131,0.054,0.182
				c0.03,0.055,0.069,0.08,0.11,0.08H32.354L32.354,46.176z"/>
			<path fill="#8E8E8E" d="M36.511,46.176c0.06,0,0.106,0.031,0.146,0.098c0.039,0.064,0.063,0.146,0.063,0.234
				c0,0.092-0.021,0.17-0.063,0.236c-0.041,0.064-0.09,0.096-0.146,0.096h-2.957c-0.059,0-0.106-0.031-0.146-0.096
				c-0.041-0.066-0.061-0.146-0.061-0.236v-0.664c0-0.117,0.014-0.225,0.033-0.328c0.026-0.104,0.063-0.19,0.11-0.27
				c0.048-0.074,0.104-0.139,0.16-0.182C33.714,45.02,33.785,45,33.856,45h2.289c0.043,0,0.082-0.023,0.114-0.074
				c0.032-0.049,0.05-0.109,0.05-0.184c0-0.07-0.019-0.129-0.05-0.182c-0.032-0.051-0.071-0.074-0.114-0.074h-2.601
				c-0.059,0-0.106-0.029-0.146-0.098c-0.041-0.063-0.062-0.146-0.062-0.234c0-0.092,0.021-0.172,0.062-0.234
				c0.039-0.064,0.093-0.098,0.146-0.098h2.582c0.08,0,0.156,0.023,0.228,0.07c0.067,0.053,0.133,0.116,0.188,0.196
				c0.058,0.082,0.101,0.183,0.125,0.291c0.025,0.11,0.046,0.229,0.046,0.358c0,0.131-0.021,0.25-0.046,0.359
				c-0.024,0.111-0.067,0.209-0.125,0.289c-0.055,0.084-0.11,0.15-0.188,0.197c-0.067,0.051-0.146,0.072-0.228,0.072h-2.242
				c-0.036,0.01-0.067,0.037-0.095,0.084c-0.023,0.045-0.039,0.104-0.039,0.172v0.258h2.761V46.176L36.511,46.176z"/>
			<path fill="#8E8E8E" d="M37.567,44.487v0.341c0,0.047,0.017,0.086,0.037,0.118c0.023,0.035,0.06,0.054,0.101,0.054h2.268
				c0.081,0,0.156,0.022,0.229,0.071c0.07,0.05,0.133,0.113,0.184,0.197c0.056,0.082,0.097,0.183,0.122,0.295
				c0.029,0.109,0.045,0.23,0.045,0.359c0,0.133-0.016,0.25-0.045,0.361c-0.025,0.107-0.068,0.207-0.122,0.291
				c-0.051,0.084-0.11,0.145-0.184,0.189c-0.07,0.045-0.146,0.069-0.229,0.069h-2.607c-0.062,0-0.107-0.03-0.146-0.099
				c-0.041-0.063-0.063-0.145-0.063-0.233c0-0.095,0.021-0.172,0.063-0.235c0.038-0.063,0.09-0.099,0.146-0.099h2.633
				c0.043,0,0.08-0.022,0.113-0.071c0.029-0.05,0.047-0.105,0.047-0.177c0-0.073-0.02-0.135-0.047-0.188
				c-0.033-0.051-0.07-0.076-0.113-0.076h-2.311c-0.064,0-0.129-0.021-0.189-0.063c-0.063-0.043-0.119-0.104-0.17-0.185
				c-0.049-0.077-0.088-0.174-0.119-0.282c-0.03-0.11-0.047-0.235-0.047-0.375v-0.623c0-0.123,0.021-0.209,0.064-0.248
				c0.047-0.043,0.113-0.063,0.213-0.063h2.773c0.063,0,0.104,0.029,0.146,0.099c0.041,0.063,0.063,0.146,0.063,0.233
				c0,0.095-0.021,0.172-0.063,0.234c-0.039,0.064-0.088,0.098-0.146,0.098L37.567,44.487L37.567,44.487z"/>
		</g>
	</g>
</g>
<g id="copper0">
	<g id="copper1">
		<circle id="connector130" fill="none" stroke="#FFBF00" stroke-width="1.152" cx="4.857" cy="-0.446" r="1.995"/>
		<circle id="connector131" fill="none" stroke="#FFBF00" stroke-width="1.152" cx="4.857" cy="8.471" r="1.995"/>
		<circle id="connector132" fill="none" stroke="#FFBF00" stroke-width="1.152" cx="4.857" cy="17.386" r="1.995"/>
		<circle id="connector133" fill="none" stroke="#FFBF00" stroke-width="1.152" cx="4.857" cy="26.303" r="1.996"/>
		<circle id="connector134" fill="none" stroke="#FFBF00" stroke-width="1.152" cx="4.857" cy="35.218" r="1.995"/>
		<circle id="connector135" fill="none" stroke="#FFBF00" stroke-width="1.152" cx="4.857" cy="44.136" r="1.995"/>
		<circle id="connector136" fill="none" stroke="#FFBF00" stroke-width="1.152" cx="4.857" cy="53.052" r="1.995"/>
		<circle id="connector137" fill="none" stroke="#FFBF00" stroke-width="1.152" cx="4.857" cy="61.967" r="1.996"/>
		<circle id="connector140" fill="none" stroke="#FFBF00" stroke-width="1.152" cx="49.663" cy="-0.446" r="1.995"/>
		<circle id="connector141" fill="none" stroke="#FFBF00" stroke-width="1.152" cx="49.663" cy="8.471" r="1.995"/>
		<circle id="connector142" fill="none" stroke="#FFBF00" stroke-width="1.152" cx="49.663" cy="17.386" r="1.995"/>
		<circle id="connector143" fill="none" stroke="#FFBF00" stroke-width="1.152" cx="49.663" cy="26.303" r="1.996"/>
		<circle id="connector144" fill="none" stroke="#FFBF00" stroke-width="1.152" cx="49.663" cy="35.218" r="1.995"/>
		<circle id="connector145" fill="none" stroke="#FFBF00" stroke-width="1.152" cx="49.663" cy="44.136" r="1.995"/>
		<circle id="connector146" fill="none" stroke="#FFBF00" stroke-width="1.152" cx="49.663" cy="53.052" r="1.995"/>
		<circle id="connector147" fill="none" stroke="#FFBF00" stroke-width="1.152" cx="49.663" cy="61.967" r="1.996"/>
	</g>
</g>
</svg>
